Coordinates
version=1
nRows=18
nColumns=22
inDegrees=yes

Units are S.I. units (second, meters, Newtons, ...)
If the header above contains a line with 'inDegrees', this indicates whether rotational values are in degrees (yes) or radians (no).

endheader
time	pelvis_tilt	pelvis_list	pelvis_rotation	pelvis_tx	pelvis_ty	pelvis_tz	hip_flexion_r	hip_adduction_r	hip_rotation_r	knee_angle_r	ankle_angle_r	subtalar_angle_r	hip_flexion_l	hip_adduction_l	hip_rotation_l	knee_angle_l	ankle_angle_l	subtalar_angle_l	lumbar_extension	lumbar_bending	lumbar_rotation
      5.05000000	     -0.26016624	     -2.38787242	   -109.57126141	      0.68989301	      0.91231577	      0.27839013	     26.48053446	      5.31507565	     -8.44518418	    -42.21298180	      0.16955928	     -3.64138202	     -4.15671025	     -2.85342011	    -24.87785950	    -18.83498277	     14.05931604	      2.37468717	     -9.18626168	     -3.99669282	     -7.97621688
      5.06000000	     -0.30781685	     -2.32009385	   -109.83899190	      0.68919915	      0.91154763	      0.28444021	     26.38630999	      5.29865750	     -9.22455522	    -38.92108796	      0.13112746	     -3.48331275	     -4.60115861	     -2.75574272	    -25.17506748	    -18.75212810	     14.28306295	      2.30071058	     -9.13785036	     -3.93345092	     -8.18545470
      5.07000000	     -0.34195880	     -2.26919475	   -110.07605760	      0.68842470	      0.91072903	      0.29058739	     26.20176923	      5.26245673	    -10.07016989	    -35.54333808	      0.05632861	     -3.29851101	     -5.05861269	     -2.64351806	    -25.43359335	    -18.67228330	     14.51869172	      2.23938574	     -9.09269232	     -3.88291814	     -8.38772345
      5.08000000	     -0.36099194	     -2.25217707	   -110.28928687	      0.68755474	      0.90988346	      0.29684310	     25.91959639	      5.20147002	    -10.97708122	    -32.11460575	     -0.00526503	     -3.08215479	     -5.55264013	     -2.50629254	    -25.65115814	    -18.58290499	     14.75111446	      2.21210439	     -9.06994982	     -3.85547434	     -8.56862416
      5.09000000	     -0.35813821	     -2.19226225	   -110.43774738	      0.68663776	      0.90889904	      0.30319588	     25.64412415	      5.10798029	    -12.04370895	    -28.68697785	     -0.08823255	     -2.91283665	     -5.96105654	     -2.39307342	    -25.83624518	    -18.56431978	     14.98201822	      2.18383230	     -8.98383367	     -3.82286588	     -8.78250853
      5.10000000	     -0.35486115	     -2.21693671	   -110.57480928	      0.68561425	      0.90797002	      0.30969472	     25.23643301	      4.98671722	    -13.19252777	    -25.28677317	     -0.08087544	     -2.72858740	     -6.48196936	     -2.24106354	    -25.97527410	    -18.50246078	     15.20641939	      2.20426841	     -8.97729884	     -3.81467150	     -8.95488102
      5.11000000	     -0.32270905	     -2.20199070	   -110.63839051	      0.68456667	      0.90690759	      0.31631245	     24.87668627	      4.81454083	    -14.57012723	    -22.00357675	     -0.06949996	     -2.60510197	     -6.91929485	     -2.10479590	    -26.06197681	    -18.50839659	     15.43294015	      2.20673818	     -8.90860908	     -3.80680387	     -9.16973050
      5.12000000	     -0.28758663	     -2.24216844	   -110.67073484	      0.68343271	      0.90586447	      0.32308928	     24.46407272	      4.60715699	    -16.12750940	    -18.87381684	      0.03204326	     -2.50029645	     -7.42003866	     -1.95251570	    -26.10556158	    -18.51094415	     15.63676853	      2.22793326	     -8.88647192	     -3.81078802	     -9.36871506
      5.13000000	     -0.26577690	     -2.34461482	   -110.68970913	      0.68216486	      0.90486406	      0.33003289	     24.00651606	      4.38573285	    -17.87427280	    -15.96175653	      0.23463980	     -2.41302063	     -8.00861577	     -1.79587975	    -26.12726189	    -18.49683864	     15.81754794	      2.28187123	     -8.92177124	     -3.81838906	     -9.51838083
      5.14000000	     -0.23284736	     -2.46020126	   -110.64861732	      0.68084293	      0.90384261	      0.33712516	     23.59860104	      4.11614030	    -19.87342924	    -13.35705969	      0.49589035	     -2.34199289	     -8.59204464	     -1.64899896	    -26.10538797	    -18.52217326	     15.96112195	      2.33726900	     -8.95810718	     -3.82514283	     -9.71127704
      5.15000000	     -0.19702778	     -2.59908968	   -110.56915934	      0.67943519	      0.90282627	      0.34435206	     23.24888941	      3.80410952	    -22.09170188	    -11.13237019	      0.84149932	     -2.28200277	     -9.19743104	     -1.50700418	    -26.02722254	    -18.56212967	     16.08423176	      2.39756636	     -9.01307639	     -3.83368251	     -9.90234926
      5.16000000	     -0.16617828	     -2.76470606	   -110.45782812	      0.67794634	      0.90184231	      0.35172006	     22.96044887	      3.44639743	    -24.47534291	     -9.34037884	      1.26720144	     -2.24479447	     -9.83599167	     -1.37458765	    -25.90432606	    -18.60966648	     16.16705116	      2.46923607	     -9.09143579	     -3.83247601	    -10.09952698
      5.17000000	     -0.14472622	     -2.95975817	   -110.32980035	      0.67637014	      0.90091094	      0.35919245	     22.73154573	      3.03486080	    -26.93211413	     -8.01793920	      1.74728642	     -2.25784370	    -10.51010203	     -1.25634103	    -25.75804553	    -18.66715287	     16.20012356	      2.55566334	     -9.20400418	     -3.81935959	    -10.29613839
      5.18000000	     -0.13152825	     -3.16974507	   -110.18522049	      0.67473478	      0.90003257	      0.36678343	     22.56670506	      2.55483299	    -29.37166227	     -7.18356023	      2.25966078	     -2.35560441	    -11.20867080	     -1.14867375	    -25.56565956	    -18.72233198	     16.18803017	      2.64472855	     -9.33384570	     -3.78568607	    -10.50188878
      5.19000000	     -0.14038252	     -3.40233665	   -110.04058121	      0.67301024	      0.89923597	      0.37448782	     22.43408630	      2.01141866	    -31.71118716	     -6.82735923	      2.76837719	     -2.57418959	    -11.94798537	     -1.06129881	    -25.34456052	    -18.77184949	     16.11749627	      2.73523673	     -9.49404812	     -3.72241741	    -10.71127867
      5.20000000	     -0.17379974	     -3.65245502	   -109.90606787	      0.67118785	      0.89852495	      0.38233493	     22.30596289	      1.41316265	    -33.84003668	     -6.90224267	      3.24087879	     -2.94106414	    -12.72683450	     -0.99450174	    -25.10833409	    -18.81474936	     15.98928101	      2.82081246	     -9.67400515	     -3.62453188	    -10.91806774
      5.21000000	     -0.21762518	     -3.90176960	   -109.78073088	      0.66927560	      0.89787379	      0.39032983	     22.18583430	      0.75595331	    -35.70255187	     -7.36728922	      3.67675614	     -3.40929017	    -13.52461011	     -0.93508495	    -24.83025399	    -18.83862667	     15.81953559	      2.88285007	     -9.84865266	     -3.49752875	    -11.14306214
      5.22000000	     -0.27501014	     -4.14023020	   -109.67971089	      0.66719888	      0.89727232	      0.39847911	     22.05175243	      0.07956976	    -37.23508822	     -8.13324108	      4.07192831	     -3.92855704	    -14.32338755	     -0.89592089	    -24.54288785	    -18.87243582	     15.59811096	      2.92090043	     -9.99960027	     -3.34629171	    -11.36801672
